<svg width="48" height="48" viewBox="0 0 48 48" fill="none" xmlns="http://www.w3.org/2000/svg">
<circle cx="24" cy="24" r="24" fill="#FF5555"/>
<path d="M26 33H22M30 20C30 18.4087 29.3679 16.8826 28.2427 15.7574C27.1174 14.6321 25.5913 14 24 14C22.4087 14 20.8826 14.6321 19.7574 15.7574C18.6322 16.8826 18 18.4087 18 20C18 23.0902 17.2205 25.206 16.3497 26.6054C15.6151 27.7859 15.2479 28.3761 15.2613 28.5408C15.2763 28.7231 15.3149 28.7926 15.4618 28.9016C15.5945 29 16.1926 29 17.3889 29H30.6112C31.8074 29 32.4056 29 32.5382 28.9016C32.6852 28.7926 32.7238 28.7231 32.7387 28.5408C32.7522 28.3761 32.3849 27.7859 31.6504 26.6054C30.7795 25.206 30 23.0902 30 20Z" stroke="white" stroke-width="2" stroke-linecap="round" stroke-linejoin="round"/>
</svg>
